<mxfile host="65bd71144e">
    <diagram id="3O0-Xh2WC5IiVglX6IXl" name="PÃ¡gina-1">
        <mxGraphModel dx="1838" dy="831" grid="1" gridSize="10" guides="1" tooltips="1" connect="1" arrows="1" fold="1" page="1" pageScale="1" pageWidth="827" pageHeight="1169" math="0" shadow="0">
            <root>
                <mxCell id="0"/>
                <mxCell id="1" parent="0"/>
                <mxCell id="5" value="" style="swimlane;startSize=0;" vertex="1" parent="1">
                    <mxGeometry x="10" y="10" width="790" height="590" as="geometry"/>
                </mxCell>
                <mxCell id="6" value="API REST" style="text;html=1;align=center;verticalAlign=middle;whiteSpace=wrap;rounded=0;" vertex="1" parent="5">
                    <mxGeometry x="245" y="20" width="60" height="30" as="geometry"/>
                </mxCell>
                <mxCell id="11" value="" style="swimlane;startSize=0;" vertex="1" parent="5">
                    <mxGeometry x="50" y="130" width="120" height="80" as="geometry"/>
                </mxCell>
                <mxCell id="13" value="Controller" style="whiteSpace=wrap;html=1;" vertex="1" parent="11">
                    <mxGeometry x="10" y="30" width="100" height="30" as="geometry"/>
                </mxCell>
                <mxCell id="12" value="Aplication" style="text;html=1;align=center;verticalAlign=middle;resizable=0;points=[];autosize=1;strokeColor=none;fillColor=none;" vertex="1" parent="5">
                    <mxGeometry x="50" y="100" width="80" height="30" as="geometry"/>
                </mxCell>
                <mxCell id="16" value="Interface Adapter" style="text;html=1;align=center;verticalAlign=middle;resizable=0;points=[];autosize=1;strokeColor=none;fillColor=none;" vertex="1" parent="5">
                    <mxGeometry x="400" y="78" width="110" height="30" as="geometry"/>
                </mxCell>
                <mxCell id="15" value="" style="swimlane;startSize=0;" vertex="1" parent="1">
                    <mxGeometry x="410" y="120" width="300" height="270" as="geometry"/>
                </mxCell>
                <mxCell id="17" value="" style="swimlane;startSize=0;" vertex="1" parent="15">
                    <mxGeometry x="60" y="100" width="110" height="70" as="geometry"/>
                </mxCell>
                <mxCell id="19" value="UnitOfWork" style="whiteSpace=wrap;html=1;" vertex="1" parent="17">
                    <mxGeometry x="10" y="20" width="90" height="40" as="geometry"/>
                </mxCell>
                <mxCell id="18" value="Data Base" style="text;html=1;align=center;verticalAlign=middle;resizable=0;points=[];autosize=1;strokeColor=none;fillColor=none;" vertex="1" parent="15">
                    <mxGeometry x="60" y="70" width="80" height="30" as="geometry"/>
                </mxCell>
            </root>
        </mxGraphModel>
    </diagram>
</mxfile>